<svg xmlns="http://www.w3.org/2000/svg" width="96" height="96" viewBox="0 0 96 96">
  <g fill="none" stroke="#C69F52" stroke-opacity=".16">
    <rect x="31" y="31" width="34" height="34"/>
    <rect x="31" y="31" width="34" height="34" transform="rotate(45 48 48)"/>
    <rect x="-10" y="-10" width="20" height="20" transform="rotate(45 0 0)"/>
    <rect x="86" y="-10" width="20" height="20" transform="rotate(45 96 0)"/>
    <rect x="-10" y="86" width="20" height="20" transform="rotate(45 0 96)"/>
    <rect x="86" y="86" width="20" height="20" transform="rotate(45 96 96)"/>
    <rect x="38" y="-10" width="20" height="20" transform="rotate(45 48 0)"/>
    <rect x="38" y="86" width="20" height="20" transform="rotate(45 48 96)"/>
    <rect x="-10" y="38" width="20" height="20" transform="rotate(45 0 48)"/>
    <rect x="86" y="38" width="20" height="20" transform="rotate(45 96 48)"/>
  </g>
</svg>
